<!DOCTYPE svg PUBLIC "-//W3C//DTD SVG 1.1//EN" "http://www.w3.org/Graphics/SVG/1.1/DTD/svg11.dtd">
<!-- Uploaded to: SVG Repo, www.svgrepo.com, Transformed by: SVG Repo Mixer Tools -->
<svg version="1.1" id="Layer_1" xmlns="http://www.w3.org/2000/svg" xmlns:xlink="http://www.w3.org/1999/xlink" viewBox="0 0 491.52 491.52" xml:space="preserve" width="256px" height="256px" fill="#000000">
<g id="SVGRepo_bgCarrier" stroke-width="0"/>
<g id="SVGRepo_tracerCarrier" stroke-linecap="round" stroke-linejoin="round"/>
<g id="SVGRepo_iconCarrier"> <path style="fill:#3a693f;" d="M428.136,55.866H63.383c-6.973,0-12.626,5.652-12.626,12.626v263.931h390.005V68.492 C440.762,61.518,435.11,55.866,428.136,55.866z"/> <rect x="71.885" y="77.005" style="fill:#E1E6E9;" width="347.776" height="234.327"/> <g> <polygon style="fill:#EBF0F3;" points="71.872,311.308 71.872,76.982 419.648,311.308 "/> <polygon style="fill:#EBF0F3;" points="491.52,420.801 0,420.801 50.757,332.423 440.762,332.423 "/> </g> <g> <polygon style="fill:#D5D6DB;" points="185.235,414.023 202.023,386.498 289.496,386.498 306.283,414.023 "/> <path style="fill:#D5D6DB;" d="M0,420.801c0,8.203,6.649,14.853,14.854,14.853h461.812c8.203,0,14.854-6.65,14.854-14.853H0z"/> </g> <g> <polygon style="fill:#6b8b65;" points="91.952,348.854 64.69,348.854 67.162,344.185 94.051,344.185 "/> <polygon style="fill:#6b8b65;" points="129.161,348.854 101.899,348.854 103.861,344.185 130.751,344.185 "/> <polygon style="fill:#6b8b65;" points="166.369,348.854 139.107,348.854 140.563,344.185 167.452,344.185 "/> <polygon style="fill:#6b8b65;" points="203.578,348.854 176.316,348.854 177.264,344.185 204.153,344.185 "/> <polygon style="fill:#6b8b65;" points="240.786,348.854 213.524,348.854 213.965,344.185 240.853,344.185 "/> <polygon style="fill:#6b8b65;" points="277.994,348.854 250.733,348.854 250.665,344.185 277.555,344.185 "/> <polygon style="fill:#6b8b65;" points="315.203,348.854 287.941,348.854 287.366,344.185 314.256,344.185 "/> <polygon style="fill:#6b8b65;" points="352.411,348.854 325.15,348.854 324.067,344.185 350.957,344.185 "/> <polygon style="fill:#6b8b65;" points="389.62,348.854 362.359,348.854 360.767,344.185 387.657,344.185 "/> <polygon style="fill:#6b8b65;" points="426.829,348.854 399.567,348.854 397.468,344.185 424.358,344.185 "/> <polygon style="fill:#6b8b65;" points="95,342.072 68.279,342.072 69.474,339.814 96.016,339.814 "/> <polygon style="fill:#6b8b65;" points="131.472,342.072 104.75,342.072 105.7,339.814 132.241,339.814 "/> <polygon style="fill:#6b8b65;" points="167.942,342.072 141.221,342.072 141.925,339.814 168.467,339.814 "/> <polygon style="fill:#6b8b65;" points="204.414,342.072 177.692,342.072 178.151,339.814 204.692,339.814 "/> <polygon style="fill:#6b8b65;" points="240.885,342.072 214.163,342.072 214.376,339.814 240.918,339.814 "/> <polygon style="fill:#6b8b65;" points="277.356,342.072 250.634,342.072 250.601,339.814 277.143,339.814 "/> <polygon style="fill:#6b8b65;" points="313.827,342.072 287.105,342.072 286.826,339.814 313.369,339.814 "/> <polygon style="fill:#6b8b65;" points="350.298,342.072 323.576,342.072 323.053,339.814 349.594,339.814 "/> <polygon style="fill:#6b8b65;" points="386.769,342.072 360.048,342.072 359.278,339.814 385.82,339.814 "/> <polygon style="fill:#6b8b65;" points="423.24,342.072 396.519,342.072 395.504,339.814 422.045,339.814 "/> <polygon style="fill:#6b8b65;" points="88.692,356.105 60.852,356.105 63.429,351.236 90.88,351.236 "/> <polygon style="fill:#6b8b65;" points="126.689,356.105 98.85,356.105 100.896,351.236 128.348,351.236 "/> <polygon style="fill:#6b8b65;" points="164.687,356.105 136.847,356.105 138.364,351.236 165.817,351.236 "/> <polygon style="fill:#6b8b65;" points="202.684,356.105 174.844,356.105 175.832,351.236 203.283,351.236 "/> <polygon style="fill:#6b8b65;" points="240.681,356.105 212.841,356.105 213.3,351.236 240.752,351.236 "/> <polygon style="fill:#6b8b65;" points="278.678,356.105 250.839,356.105 250.768,351.236 278.219,351.236 "/> <polygon style="fill:#6b8b65;" points="316.675,356.105 288.836,356.105 288.235,351.236 315.687,351.236 "/> <polygon style="fill:#6b8b65;" points="354.672,356.105 326.833,356.105 325.703,351.236 353.155,351.236 "/> <polygon style="fill:#6b8b65;" points="392.669,356.105 364.83,356.105 363.17,351.236 390.622,351.236 "/> <polygon style="fill:#6b8b65;" points="430.666,356.105 402.827,356.105 400.639,351.236 428.091,351.236 "/> <polygon style="fill:#6b8b65;" points="85.291,363.669 56.849,363.669 59.537,358.591 87.574,358.591 "/> <polygon style="fill:#6b8b65;" points="124.111,363.669 95.67,363.669 97.804,358.591 125.842,358.591 "/> <polygon style="fill:#6b8b65;" points="162.93,363.669 134.488,363.669 136.073,358.591 164.109,358.591 "/> <polygon style="fill:#6b8b65;" points="201.751,363.669 173.309,363.669 174.339,358.591 202.377,358.591 "/> <polygon style="fill:#6b8b65;" points="240.571,363.669 212.129,363.669 212.607,358.591 240.644,358.591 "/> <polygon style="fill:#6b8b65;" points="279.391,363.669 250.949,363.669 250.874,358.591 278.912,358.591 "/> <polygon style="fill:#6b8b65;" points="318.211,363.669 289.768,363.669 289.142,358.591 317.179,358.591 "/> <polygon style="fill:#6b8b65;" points="357.03,363.669 328.588,363.669 327.409,358.591 355.447,358.591 "/> <polygon style="fill:#6b8b65;" points="395.85,363.669 367.407,363.669 365.677,358.591 393.714,358.591 "/> <polygon style="fill:#6b8b65;" points="434.67,363.669 406.227,363.669 403.944,358.591 431.982,358.591 "/> <polygon style="fill:#6b8b65;" points="81.741,371.569 52.669,371.569 55.476,366.265 84.125,366.265 "/> <polygon style="fill:#6b8b65;" points="121.418,371.569 92.347,371.569 94.578,366.265 123.226,366.265 "/> <polygon style="fill:#6b8b65;" points="161.098,371.569 132.027,371.569 133.68,366.265 162.329,366.265 "/> <polygon style="fill:#6b8b65;" points="200.777,371.569 171.706,371.569 172.782,366.265 201.431,366.265 "/> <polygon style="fill:#6b8b65;" points="240.456,371.569 211.384,371.569 211.884,366.265 240.533,366.265 "/> <polygon style="fill:#6b8b65;" points="280.135,371.569 251.063,371.569 250.986,366.265 279.636,366.265 "/> <polygon style="fill:#6b8b65;" points="359.493,371.569 330.421,371.569 329.19,366.265 357.839,366.265 "/> <polygon style="fill:#6b8b65;" points="438.851,371.569 409.779,371.569 407.394,366.265 436.043,366.265 "/> <polygon style="fill:#6b8b65;" points="78.028,379.827 48.298,379.827 51.233,374.281 80.522,374.281 "/> <polygon style="fill:#6b8b65;" points="240.336,379.827 88.875,379.827 91.207,374.281 240.416,374.281 "/> <polygon style="fill:#6b8b65;" points="280.912,379.827 251.184,379.827 251.102,374.281 280.391,374.281 "/> <polygon style="fill:#6b8b65;" points="321.489,379.827 291.76,379.827 291.076,374.281 320.364,374.281 "/> <polygon style="fill:#6b8b65;" points="362.067,379.827 332.337,379.827 331.05,374.281 360.339,374.281 "/> <polygon style="fill:#6b8b65;" points="402.644,379.827 372.914,379.827 371.024,374.281 400.312,374.281 "/> <polygon style="fill:#6b8b65;" points="443.22,379.827 413.491,379.827 410.998,374.281 440.285,374.281 "/> </g> </g>
</svg>